<svg xmlns="http://www.w3.org/2000/svg" width="32" height="32" viewBox="0 0 32 32" fill="none">
  <!-- Lotus petals background -->
  <g transform="translate(16,16)">
    <g fill="#FF7F50" opacity="0.7">
      <path d="M0,-15 L3,-10 L0,-7 L-3,-10 Z" transform="rotate(0)"/>
      <path d="M0,-15 L3,-10 L0,-7 L-3,-10 Z" transform="rotate(45)"/>
      <path d="M0,-15 L3,-10 L0,-7 L-3,-10 Z" transform="rotate(90)"/>
      <path d="M0,-15 L3,-10 L0,-7 L-3,-10 Z" transform="rotate(135)"/>
      <path d="M0,-15 L3,-10 L0,-7 L-3,-10 Z" transform="rotate(180)"/>
      <path d="M0,-15 L3,-10 L0,-7 L-3,-10 Z" transform="rotate(225)"/>
      <path d="M0,-15 L3,-10 L0,-7 L-3,-10 Z" transform="rotate(270)"/>
      <path d="M0,-15 L3,-10 L0,-7 L-3,-10 Z" transform="rotate(315)"/>
    </g>
  </g>
  
  <!-- Main circular background -->
  <circle cx="16" cy="16" r="12" fill="url(#oceanGradient)" stroke="#FFD700" stroke-width="1"/>
  
  <!-- Om Symbol (ॐ) using text -->
  <text x="16" y="21" font-family="serif" font-size="14" font-weight="bold" 
        text-anchor="middle" fill="#FF4500" stroke="#FF6347" stroke-width="0.3">ॐ</text>
  
  <!-- Gradient definitions -->
  <defs>
    <radialGradient id="oceanGradient" cx="50%" cy="50%" r="50%">
      <stop offset="0%" style="stop-color:#E0F6FF;stop-opacity:1" />
      <stop offset="50%" style="stop-color:#B0E0E6;stop-opacity:1" />
      <stop offset="100%" style="stop-color:#87CEEB;stop-opacity:1" />
    </radialGradient>
  </defs>
</svg>